<!-- sample rectangle -->
<svg width="267" height="65" viewBox="0 0 267 65" fill="none" xmlns="http://www.w3.org/2000/svg">
<path d="M55.2083 20.04C55.2083 23.6667 53.9283 26.8027 51.3683 29.448C48.8083 32.0507 45.0749 33.928 40.1683 35.08C42.8136 35.8053 44.8189 37 46.1843 38.664C47.5496 40.2853 48.2323 42.1627 48.2323 44.296C48.2323 47.6667 47.1656 50.5893 45.0323 53.064C42.9416 55.5387 39.8696 57.4587 35.8162 58.824C31.7629 60.1467 26.8776 60.808 21.1603 60.808C19.0269 60.808 17.3203 60.744 16.0403 60.616C15.9976 61.8107 15.4856 62.7067 14.5043 63.304C13.5229 63.9013 12.2643 64.2 10.7283 64.2C9.19225 64.2 8.12558 63.8587 7.52825 63.176C6.97358 62.4933 6.73892 61.4907 6.82425 60.168C7.20825 54.1947 7.95492 47.944 9.06425 41.416C10.1736 34.8453 11.5816 28.5093 13.2883 22.408C13.5869 21.3413 14.1843 20.5947 15.0803 20.168C15.9763 19.7413 17.1496 19.528 18.6003 19.528C21.2029 19.528 22.5043 20.2533 22.5043 21.704C22.5043 22.3013 22.3763 22.984 22.1203 23.752C21.0109 27.08 19.9016 31.6027 18.7923 37.32C17.6829 42.9947 16.8936 48.4133 16.4243 53.576C18.4723 53.7467 20.1363 53.832 21.4163 53.832C27.3896 53.832 31.7629 52.9787 34.5363 51.272C37.3523 49.5227 38.7603 47.304 38.7603 44.616C38.7603 42.7387 37.9496 41.16 36.3283 39.88C34.7496 38.6 32.0829 37.896 28.3283 37.768C27.4749 37.7253 26.8776 37.512 26.5363 37.128C26.1949 36.744 26.0243 36.1253 26.0243 35.272C26.0243 34.0347 26.2803 33.032 26.7923 32.264C27.3043 31.496 28.2429 31.0907 29.6083 31.048C32.6376 30.9627 35.3683 30.5147 37.8003 29.704C40.2749 28.8933 42.2163 27.7627 43.6243 26.312C45.0323 24.8187 45.7363 23.0907 45.7363 21.128C45.7363 18.6533 44.5203 16.712 42.0883 15.304C39.6563 13.8533 35.9229 13.128 30.8883 13.128C26.3229 13.128 21.9069 13.7253 17.6403 14.92C13.3736 16.072 9.74692 17.544 6.76025 19.336C5.39492 20.1467 4.24292 20.552 3.30425 20.552C2.53625 20.552 1.93892 20.296 1.51225 19.784C1.12825 19.2293 0.93625 18.5467 0.93625 17.736C0.93625 16.6693 1.14958 15.752 1.57625 14.984C2.04558 14.216 3.13358 13.3413 4.84025 12.36C8.42425 10.312 12.6269 8.712 17.4483 7.56C22.2696 6.408 27.1976 5.832 32.2323 5.832C39.9549 5.832 45.7149 7.13333 49.5123 9.736C53.3096 12.3387 55.2083 15.7733 55.2083 20.04ZM86.0558 41.352C86.6104 41.352 87.0371 41.6293 87.3358 42.184C87.6344 42.7387 87.7838 43.4427 87.7838 44.296C87.7838 46.344 87.1651 47.56 85.9278 47.944C83.3678 48.84 80.5518 49.352 77.4798 49.48C76.6691 53.064 75.0691 55.944 72.6798 58.12C70.2904 60.2533 67.5811 61.32 64.5518 61.32C61.9918 61.32 59.7944 60.7013 57.9598 59.464C56.1678 58.2267 54.8024 56.584 53.8638 54.536C52.9251 52.488 52.4557 50.2693 52.4557 47.88C52.4557 44.6373 53.0744 41.7573 54.3118 39.24C55.5491 36.68 57.2558 34.696 59.4318 33.288C61.6078 31.8373 64.0184 31.112 66.6638 31.112C69.9064 31.112 72.5091 32.2427 74.4718 34.504C76.4771 36.7227 77.6504 39.4747 77.9918 42.76C79.9971 42.632 82.3864 42.2053 85.1598 41.48C85.5011 41.3947 85.7998 41.352 86.0558 41.352ZM65.0638 54.536C66.4291 54.536 67.6024 53.9813 68.5838 52.872C69.6078 51.7627 70.2904 50.1627 70.6318 48.072C69.3091 47.176 68.2851 46.0027 67.5598 44.552C66.8771 43.1013 66.5358 41.5653 66.5358 39.944C66.5358 39.2613 66.5998 38.5787 66.7278 37.896H66.4078C64.7011 37.896 63.2718 38.728 62.1198 40.392C61.0104 42.0133 60.4558 44.3173 60.4558 47.304C60.4558 49.6507 60.9038 51.4427 61.7998 52.68C62.7384 53.9173 63.8264 54.536 65.0638 54.536ZM114.931 41.352C115.485 41.352 115.912 41.6293 116.211 42.184C116.509 42.7387 116.659 43.4427 116.659 44.296C116.659 46.344 116.04 47.56 114.803 47.944C112.243 48.84 109.427 49.352 106.355 49.48C105.544 53.064 103.944 55.944 101.555 58.12C99.1654 60.2533 96.4561 61.32 93.4268 61.32C90.8668 61.32 88.6694 60.7013 86.8348 59.464C85.0428 58.2267 83.6774 56.584 82.7388 54.536C81.8001 52.488 81.3307 50.2693 81.3307 47.88C81.3307 44.6373 81.9494 41.7573 83.1868 39.24C84.4241 36.68 86.1308 34.696 88.3068 33.288C90.4828 31.8373 92.8934 31.112 95.5388 31.112C98.7814 31.112 101.384 32.2427 103.347 34.504C105.352 36.7227 106.525 39.4747 106.867 42.76C108.872 42.632 111.261 42.2053 114.035 41.48C114.376 41.3947 114.675 41.352 114.931 41.352ZM93.9388 54.536C95.3041 54.536 96.4774 53.9813 97.4588 52.872C98.4828 51.7627 99.1654 50.1627 99.5068 48.072C98.1841 47.176 97.1601 46.0027 96.4348 44.552C95.7521 43.1013 95.4108 41.5653 95.4108 39.944C95.4108 39.2613 95.4748 38.5787 95.6028 37.896H95.2828C93.5761 37.896 92.1468 38.728 90.9948 40.392C89.8854 42.0133 89.3308 44.3173 89.3308 47.304C89.3308 49.6507 89.7788 51.4427 90.6748 52.68C91.6134 53.9173 92.7014 54.536 93.9388 54.536ZM148.158 46.728C148.712 46.728 149.139 46.984 149.438 47.496C149.779 48.008 149.95 48.712 149.95 49.608C149.95 51.3147 149.544 52.6373 148.734 53.576C146.814 55.9227 144.872 57.8 142.91 59.208C140.947 60.616 138.622 61.32 135.934 61.32C132.648 61.32 130.003 60.3813 127.998 58.504C125.992 56.6267 124.99 54.1307 124.99 51.016C124.99 49.352 125.843 48.1573 127.55 47.432C129.427 46.6213 130.771 45.768 131.582 44.872C132.392 43.9333 132.798 42.8027 132.798 41.48C132.798 40.712 132.627 40.136 132.286 39.752C131.987 39.368 131.603 39.176 131.134 39.176C129.982 39.176 128.702 40.008 127.294 41.672C125.928 43.336 124.648 45.4907 123.454 48.136C122.259 50.7387 121.32 53.4267 120.638 56.2C120.168 58.2053 119.614 59.5707 118.974 60.296C118.376 60.9787 117.416 61.32 116.094 61.32C114.771 61.32 113.79 60.8507 113.15 59.912C112.552 58.9307 112.147 57.4373 111.934 55.432C111.72 53.4267 111.614 50.4827 111.614 46.6C111.614 40.0293 112.275 33.1813 113.598 26.056C114.963 18.9307 116.947 12.9573 119.55 8.136C122.195 3.272 125.352 0.839996 129.022 0.839996C130.984 0.839996 132.563 1.69333 133.758 3.4C134.995 5.064 135.614 7.24 135.614 9.928C135.614 14.2373 134.355 18.7173 131.838 23.368C129.32 27.976 125.224 33.3733 119.55 39.56C119.422 41.7787 119.358 44.0613 119.358 46.408C121.406 41.0747 123.752 37.2133 126.398 34.824C129.043 32.392 131.518 31.176 133.822 31.176C135.955 31.176 137.662 31.9013 138.942 33.352C140.264 34.8027 140.926 36.5947 140.926 38.728C140.926 41.0747 140.328 43.2293 139.134 45.192C137.939 47.1547 135.891 48.904 132.99 50.44C133.16 51.592 133.672 52.5307 134.526 53.256C135.422 53.9387 136.488 54.28 137.726 54.28C139.048 54.28 140.328 53.768 141.566 52.744C142.803 51.72 144.424 50.0133 146.43 47.624C146.942 47.0267 147.518 46.728 148.158 46.728ZM127.678 7.176C126.91 7.176 126.056 8.28533 125.118 10.504C124.179 12.68 123.262 15.6453 122.366 19.4C121.512 23.112 120.808 27.1653 120.254 31.56C122.899 28.4453 125.075 25.0533 126.782 21.384C128.531 17.7147 129.406 14.3867 129.406 11.4C129.406 10.0347 129.256 8.98933 128.958 8.264C128.659 7.53866 128.232 7.176 127.678 7.176ZM166.039 61.32C162.241 61.32 158.807 60.4667 155.735 58.76C152.705 57.0533 150.295 54.5573 148.503 51.272C146.711 47.944 145.815 43.976 145.815 39.368C145.815 32.8827 146.988 27.1653 149.335 22.216C151.724 17.2667 154.945 13.448 158.999 10.76C163.095 8.072 167.617 6.728 172.567 6.728C176.364 6.728 179.777 7.58133 182.807 9.288C185.879 10.9947 188.311 13.512 190.103 16.84C191.895 20.1253 192.791 24.072 192.791 28.68C192.791 35.1653 191.596 40.8827 189.207 45.832C186.86 50.7813 183.639 54.6 179.543 57.288C175.489 59.976 170.988 61.32 166.039 61.32ZM166.679 53.768C170.007 53.768 172.929 52.744 175.447 50.696C178.007 48.648 179.969 45.8107 181.335 42.184C182.7 38.5147 183.383 34.376 183.383 29.768C183.383 24.6907 182.316 20.8507 180.183 18.248C178.049 15.6027 175.297 14.28 171.927 14.28C168.641 14.28 165.74 15.304 163.223 17.352C160.705 19.3573 158.743 22.1947 157.335 25.864C155.927 29.4907 155.223 33.6293 155.223 38.28C155.223 43.3573 156.289 47.2187 158.423 49.864C160.556 52.4667 163.308 53.768 166.679 53.768ZM244.785 41.544C244.913 41.5013 245.126 41.48 245.425 41.48C246.065 41.48 246.555 41.6933 246.897 42.12C247.238 42.5467 247.409 43.1227 247.409 43.848C247.409 45.1707 247.153 46.216 246.641 46.984C246.129 47.7093 245.361 48.2427 244.337 48.584C242.374 49.224 240.283 49.544 238.065 49.544C236.187 49.544 234.417 49.288 232.753 48.776C231.515 50.7813 230.15 52.8507 228.657 54.984C226.95 57.416 225.478 59.08 224.241 59.976C223.046 60.872 221.681 61.32 220.145 61.32C218.438 61.32 217.137 60.6587 216.241 59.336C215.387 58.0133 214.854 55.8373 214.641 52.808L214.321 48.136C212.998 51.72 211.803 54.4507 210.737 56.328C209.713 58.2053 208.667 59.5067 207.601 60.232C206.577 60.9573 205.361 61.32 203.953 61.32C202.203 61.32 200.817 60.6373 199.793 59.272C198.811 57.9067 198.193 55.752 197.937 52.808C197.425 46.8347 197.169 41.608 197.169 37.128V34.888C197.211 33.48 197.595 32.4987 198.321 31.944C199.046 31.3893 200.134 31.112 201.585 31.112C202.694 31.112 203.505 31.368 204.017 31.88C204.571 32.3493 204.849 33.16 204.849 34.312C204.849 39.2187 205.147 45.5973 205.745 53.448C208.646 47.3467 211.313 40.9893 213.745 34.376C214.214 33.096 214.769 32.2427 215.409 31.816C216.091 31.3467 216.902 31.112 217.841 31.112C218.993 31.112 219.782 31.3467 220.209 31.816C220.678 32.2853 220.913 33.1173 220.913 34.312C220.913 39.2187 221.211 45.5973 221.809 53.448C224.369 49.6507 226.289 46.6213 227.569 44.36C226.929 43.1227 226.609 41.6507 226.609 39.944C226.609 38.4933 226.929 37.0853 227.569 35.72C228.209 34.3547 229.083 33.2453 230.193 32.392C231.302 31.5387 232.561 31.112 233.969 31.112C235.206 31.112 236.209 31.56 236.977 32.456C237.745 33.3093 238.129 34.568 238.129 36.232C238.129 38.152 237.617 40.3493 236.593 42.824C238.214 42.7387 240.369 42.4187 243.057 41.864L244.785 41.544ZM260.349 51.976C260.819 51.5493 261.288 51.336 261.757 51.336C262.269 51.336 262.675 51.6347 262.973 52.232C263.315 52.7867 263.485 53.4693 263.485 54.28C263.485 56.072 262.845 57.5013 261.565 58.568C259.347 60.4027 256.829 61.32 254.013 61.32C249.96 61.32 246.995 59.6347 245.117 56.264C243.24 52.8507 242.301 48.4133 242.301 42.952C242.301 37.7467 242.963 31.816 244.285 25.16C245.651 18.504 247.635 12.7867 250.237 8.008C252.883 3.22933 256.019 0.839996 259.645 0.839996C261.693 0.839996 263.293 1.8 264.445 3.72C265.64 5.59733 266.237 8.30667 266.237 11.848C266.237 16.9253 264.829 22.8133 262.013 29.512C259.24 36.2107 255.443 42.824 250.621 49.352C250.92 51.1013 251.453 52.36 252.221 53.128C252.989 53.896 254.035 54.28 255.357 54.28C256.083 54.28 256.893 54.0667 257.789 53.64C258.728 53.2133 259.581 52.6587 260.349 51.976ZM258.237 7.176C257.256 7.176 256.147 8.94667 254.909 12.488C253.672 16.0293 252.584 20.424 251.645 25.672C250.707 30.92 250.195 35.9547 250.109 40.776C253.139 35.784 255.549 30.792 257.341 25.8C259.133 20.7653 260.029 16.1787 260.029 12.04C260.029 8.79733 259.432 7.176 258.237 7.176Z" fill="url(#paint0_linear_5_39)"/>
<defs>
<linearGradient id="paint0_linear_5_39" x1="131" y1="-22" x2="131" y2="90" gradientUnits="userSpaceOnUse">
<stop stop-color="#F582F5"/>
<stop offset="1" stop-color="#A449FF"/>
</linearGradient>
</defs>
</svg>
